{"glyphs":{":":{"x_min":0,"x_max":264,"ha":264,"o":"m 79 373 l 79 472 l 185 472 l 185 373 z m 79 0 l 79 99 l 185 99 l 185 0 z"},"$":{"x_min":0,"x_max":444,"ha":444,"o":"m 200 613 q 159 608 134 578 q 109 549 109 507 q 109 455 131 422 q 154 390 200 374 z m 230 298 l 230 56 q 277 66 305 100 q 332 133 332 180 q 332 222 307 251 q 283 279 230 298 z m 230 -53 l 186 -53 l 186 3 q 143 8 103 21 q 63 34 24 56 l 24 129 l 74 129 q 95 95 121 78 q 147 61 186 55 l 186 304 q 109 334 73 380 q 36 425 36 489 q 36 563 80 610 q 125 656 200 661 l 200 719 l 241 719 l 241 661 q 277 657 310 645 q 343 632 375 612 l 375 541 l 333 541 q 315 571 294 588 q 273 605 241 613 l 241 362 q 321 341 360 297 q 400 253 400 186 q 400 109 354 60 q 307 10 230 4 z"},"?":{"x_min":0,"x_max":444,"ha":444,"o":"m 178 228 q 178 259 189 284 q 201 310 231 342 q 237 348 249 360 q 320 434 320 500 q 320 555 294 583 q 269 612 218 612 q 174 612 147 583 q 120 555 120 509 l 120 461 l 49 461 q 48 468 48 475 q 48 482 48 497 q 48 576 95 622 q 143 667 225 667 q 309 667 353 625 q 396 582 396 500 q 396 417 308 327 q 289 308 280 298 q 260 275 250 252 q 241 229 241 202 q 241 194 243 180 q 243 178 243 177 l 178 177 z m 157 0 l 157 99 l 264 99 l 264 0 z"},"<":{"x_min":0,"x_max":833,"ha":833,"o":"m 704 501 l 205 298 l 704 96 l 704 43 l 129 278 l 129 318 l 704 554 z"},"'":{"x_min":0,"x_max":144,"ha":144,"o":"m 97 700 l 97 430 l 48 430 l 48 700 z"},"=":{"x_min":0,"x_max":833,"ha":833,"o":"m 709 231 l 709 183 l 124 183 l 124 231 z m 709 413 l 709 365 l 124 365 l 124 413 z"},"a":{"x_min":0,"x_max":444,"ha":444,"o":"m 315 261 q 217 253 163 219 q 109 186 109 133 q 109 94 136 70 q 163 46 207 46 q 237 46 263 58 q 290 69 315 94 z m 316 41 l 307 42 q 278 13 249 0 q 219 -14 185 -14 q 123 -14 80 26 q 37 67 37 125 q 37 202 107 247 q 177 293 313 304 q 313 310 314 316 q 314 323 314 335 q 314 393 292 419 q 269 446 219 446 q 179 446 156 430 q 132 414 117 376 l 67 376 l 67 452 q 105 477 143 489 q 181 500 222 500 q 268 500 304 484 q 340 468 362 438 q 375 420 381 394 q 386 367 386 305 l 386 291 l 386 264 l 386 0 l 316 0 z"},"L":{"x_min":0,"x_max":389,"ha":389,"o":"m 375 0 l 69 0 l 69 653 l 143 653 l 143 58 l 375 58 z"},"3":{"x_min":0,"x_max":444,"ha":444,"o":"m 25 116 l 73 116 q 90 81 119 63 q 148 45 188 45 q 240 45 275 84 q 310 123 310 180 q 310 245 269 277 q 228 310 147 311 l 147 379 q 221 383 258 417 q 296 451 296 513 q 296 562 264 595 q 233 627 185 627 q 151 627 125 609 q 100 592 83 557 l 38 557 l 38 635 q 82 658 122 670 q 162 681 199 681 q 278 681 327 636 q 376 591 376 518 q 376 459 341 417 q 306 375 241 356 l 241 343 q 312 333 352 289 q 392 244 392 172 q 392 92 335 39 q 278 -14 189 -14 q 144 -14 104 -1 q 63 11 25 38 z"},";":{"x_min":0,"x_max":264,"ha":264,"o":"m 65 -110 q 97 -107 111 -91 q 124 -75 124 -37 l 124 13 l 78 13 l 78 101 l 185 101 l 185 -9 q 185 -91 159 -122 q 133 -153 65 -156 z m 79 373 l 79 472 l 185 472 l 185 373 z"},"J":{"x_min":0,"x_max":431,"ha":431,"o":"m 40 196 l 40 269 l 114 269 l 114 175 q 114 104 133 77 q 152 49 199 49 q 245 49 264 79 q 284 109 284 181 l 284 653 l 358 653 l 358 220 q 358 82 322 34 q 287 -14 198 -14 q 113 -14 77 33 q 40 81 40 196 z"},"V":{"x_min":0,"x_max":486,"ha":486,"o":"m 14 653 l 100 653 l 198 251 q 205 225 213 180 q 221 134 232 65 l 248 65 q 259 139 267 193 q 276 247 279 259 l 374 653 l 458 653 l 275 0 l 201 0 z"},"\"":{"x_min":0,"x_max":278,"ha":278,"o":"m 231 700 l 231 430 l 181 430 l 181 700 z m 97 700 l 97 430 l 48 430 l 48 700 z"},"7":{"x_min":0,"x_max":444,"ha":444,"o":"m 34 0 l 290 507 q 304 534 318 558 q 333 582 348 602 l 339 616 q 312 608 285 605 q 257 601 227 601 l 56 601 l 56 667 l 419 667 l 419 619 l 111 0 z"},"S":{"x_min":0,"x_max":458,"ha":458,"o":"m 37 125 l 92 125 q 114 82 144 62 q 173 43 217 43 q 275 43 311 76 q 347 110 347 163 q 347 236 221 296 q 199 307 187 313 q 106 353 73 395 q 41 437 41 499 q 41 572 93 620 q 144 668 223 668 q 274 668 317 655 q 359 641 396 613 l 396 531 l 343 531 q 321 572 293 591 q 266 611 230 611 q 182 611 149 579 q 117 548 117 501 q 117 462 141 434 q 165 405 221 380 q 229 376 246 369 q 340 327 369 298 q 396 271 411 237 q 425 204 425 168 q 425 88 364 36 q 302 -15 205 -15 q 163 -15 122 -4 q 81 7 37 30 z"},"}":{"x_min":0,"x_max":500,"ha":500,"o":"m 271 540 l 271 422 q 271 347 299 316 q 327 285 394 285 q 397 285 405 286 q 412 286 416 286 l 416 233 q 412 233 405 233 q 397 234 394 234 q 327 234 299 203 q 271 172 271 97 l 271 -22 q 271 -131 237 -167 q 203 -202 107 -202 l 84 -202 l 84 -150 l 103 -150 q 167 -150 189 -126 q 211 -102 211 -27 l 211 91 q 211 174 232 209 q 253 244 307 259 q 253 274 232 309 q 211 344 211 427 l 211 545 q 211 622 189 646 q 167 670 106 670 q 103 670 95 669 q 88 669 84 669 l 84 721 l 107 721 q 203 721 237 685 q 271 649 271 540 z"},"Z":{"x_min":0,"x_max":431,"ha":431,"o":"m 21 51 l 305 597 l 37 597 l 37 653 l 397 653 l 397 617 l 107 58 l 397 58 l 397 0 l 21 0 z"},"x":{"x_min":0,"x_max":389,"ha":389,"o":"m 136 239 l 136 250 l 19 486 l 111 486 l 188 269 l 199 269 l 286 486 l 367 486 l 247 250 l 247 239 l 367 0 l 280 0 l 200 220 l 189 220 l 103 0 l 19 0 z"},")":{"x_min":0,"x_max":278,"ha":278,"o":"m 80 667 q 151 573 186 471 q 221 368 221 252 q 221 136 186 33 q 151 -69 80 -163 l 17 -163 l 17 -149 q 79 -67 109 30 q 138 127 138 252 q 138 377 109 474 q 79 572 17 653 l 17 667 z"},"&":{"x_min":0,"x_max":569,"ha":569,"o":"m 253 380 q 297 411 317 441 q 336 472 336 510 q 336 559 311 587 q 286 615 244 615 q 201 615 174 590 q 148 565 148 525 q 148 489 169 455 q 190 420 238 380 z m 198 322 q 155 289 138 258 q 120 228 120 189 q 120 125 158 82 q 196 39 250 39 q 282 39 315 56 q 349 73 387 109 z m 412 80 q 379 31 337 8 q 295 -15 240 -15 q 161 -15 108 39 q 55 93 55 174 q 55 235 84 277 q 114 319 178 349 l 178 360 q 130 397 108 437 q 85 476 85 521 q 85 586 128 626 q 170 666 239 666 q 308 666 354 622 q 400 579 400 514 q 400 460 364 415 q 327 371 266 351 l 266 344 q 305 311 340 270 q 375 229 408 178 l 426 178 l 426 367 l 506 367 l 506 330 q 506 265 491 221 q 476 177 444 147 l 444 141 l 581 0 l 487 0 z"},"_":{"x_min":0,"x_max":500,"ha":500,"o":"m 500 -187 l 500 -236 l 0 -236 l 0 -187 z"},"v":{"x_min":0,"x_max":389,"ha":389,"o":"m 21 486 l 98 486 l 165 216 q 171 192 178 159 q 185 125 192 83 l 204 83 q 211 131 217 165 q 223 199 227 215 l 291 486 l 368 486 l 224 0 l 162 0 z"},"O":{"x_min":0,"x_max":556,"ha":556,"o":"m 278 44 q 356 44 396 111 q 436 178 436 309 q 436 465 398 537 q 360 609 278 609 q 198 609 158 539 q 119 469 119 327 q 119 184 158 114 q 198 44 278 44 z m 279 667 q 395 667 455 582 q 514 497 514 330 q 514 158 455 72 q 396 -14 279 -14 q 162 -14 102 73 q 42 160 42 328 q 42 496 102 582 q 162 667 279 667 z"},"(":{"x_min":0,"x_max":278,"ha":278,"o":"m 198 -163 q 127 -70 92 33 q 57 136 57 252 q 57 368 92 471 q 127 574 198 667 l 260 667 l 260 653 q 198 571 169 474 q 140 377 140 252 q 140 126 169 29 q 198 -68 260 -149 l 260 -163 z"},"C":{"x_min":0,"x_max":486,"ha":486,"o":"m 407 144 l 457 144 l 457 50 q 409 17 365 1 q 322 -14 275 -14 q 165 -14 103 76 q 42 167 42 330 q 42 489 106 579 q 170 668 284 668 q 324 668 366 653 q 408 638 457 606 l 457 515 l 407 515 q 385 564 355 587 q 325 609 281 609 q 202 609 161 535 q 120 461 120 318 q 120 187 162 117 q 204 47 282 47 q 328 47 359 71 q 390 95 407 144 z"},"W":{"x_min":0,"x_max":778,"ha":778,"o":"m 25 653 l 111 653 l 189 264 q 201 201 209 158 q 216 116 223 76 l 238 76 q 241 134 259 221 q 262 232 263 238 l 345 653 l 428 653 l 508 242 q 518 192 523 153 q 529 113 532 76 l 546 76 q 554 121 574 219 q 581 252 584 269 l 663 653 l 747 653 l 583 0 l 500 0 l 419 424 q 418 428 417 437 q 399 523 395 572 l 377 572 q 371 524 354 438 q 352 425 351 419 l 272 0 l 188 0 z"},"A":{"x_min":0,"x_max":500,"ha":500,"o":"m 194 360 l 159 224 l 336 224 l 300 360 q 286 416 276 473 q 266 530 261 588 l 230 588 q 225 525 216 468 q 208 412 194 360 z m 198 653 l 300 653 l 472 0 l 387 0 l 343 166 l 154 166 l 107 0 l 28 0 z"},"f":{"x_min":0,"x_max":264,"ha":264,"o":"m 86 428 l 16 428 l 16 486 l 86 486 q 86 492 85 511 q 85 531 85 544 q 85 628 116 661 q 147 695 225 695 q 229 695 237 694 q 245 694 249 694 l 249 637 l 237 637 q 192 637 173 618 q 154 599 154 554 l 154 486 l 235 486 l 235 428 l 154 428 l 154 0 l 86 0 z"},"Q":{"x_min":0,"x_max":556,"ha":556,"o":"m 397 98 q 418 132 428 176 q 437 220 437 299 q 437 461 399 535 q 361 609 278 609 q 198 609 158 539 q 119 469 119 327 q 119 184 160 112 q 200 40 281 40 q 297 40 317 44 q 336 48 362 58 q 339 77 322 93 q 305 108 294 121 l 229 192 l 279 238 l 343 169 q 359 152 372 135 q 386 117 397 98 z m 432 50 q 448 40 462 29 q 477 18 490 3 l 533 -43 l 485 -92 l 435 -35 q 434 -33 430 -29 q 407 -3 398 20 q 366 2 337 -6 q 308 -14 277 -14 q 162 -14 102 73 q 42 159 42 328 q 42 496 102 581 q 162 667 279 667 q 395 667 454 582 q 514 496 514 330 q 514 230 494 164 q 475 98 432 50 z"},"w":{"x_min":0,"x_max":625,"ha":625,"o":"m 18 486 l 96 486 l 178 73 l 191 73 l 272 486 l 344 486 l 428 73 l 440 73 l 523 486 l 603 486 l 467 0 l 400 0 l 315 374 l 302 374 l 219 0 l 153 0 z"},"-":{"x_min":0,"x_max":278,"ha":278,"o":"m 35 333 l 243 333 l 243 264 l 35 264 z"},"E":{"x_min":0,"x_max":444,"ha":444,"o":"m 417 0 l 69 0 l 69 653 l 404 653 l 404 597 l 143 597 l 143 376 l 390 376 l 390 317 l 143 317 l 143 58 l 417 58 z"},"s":{"x_min":0,"x_max":403,"ha":403,"o":"m 40 114 l 85 114 q 102 81 131 64 q 160 47 200 47 q 244 47 270 69 q 297 92 297 128 q 297 184 199 213 q 164 224 145 231 q 102 246 76 281 q 51 315 51 358 q 51 419 95 459 q 140 499 210 499 q 250 499 283 486 q 317 473 350 444 l 350 374 l 304 374 q 289 408 264 425 q 239 442 205 442 q 167 442 141 419 q 115 396 115 363 q 115 333 139 312 q 163 292 225 274 q 302 251 335 219 q 367 187 367 135 q 367 68 322 27 q 276 -13 200 -13 q 155 -13 112 2 q 70 17 40 44 z"},">":{"x_min":0,"x_max":833,"ha":833,"o":"m 704 318 l 704 278 l 129 43 l 129 96 l 628 298 l 129 501 l 129 554 z"},"l":{"x_min":0,"x_max":208,"ha":208,"o":"m 69 681 l 138 681 l 138 0 l 69 0 z"},"8":{"x_min":0,"x_max":444,"ha":444,"o":"m 260 364 q 295 399 311 432 q 327 465 327 503 q 327 562 299 594 q 270 627 220 627 q 173 627 145 598 q 116 570 116 522 q 116 469 151 431 q 185 393 260 364 z m 170 331 q 136 306 119 269 q 101 232 101 185 q 101 122 136 82 q 170 42 225 42 q 277 42 309 74 q 341 106 341 159 q 341 215 300 257 q 258 299 170 331 z m 131 354 q 86 392 64 432 q 43 473 43 519 q 43 590 92 635 q 142 680 219 680 q 296 680 346 633 q 395 585 395 513 q 395 463 372 425 q 348 386 297 353 l 297 344 q 353 314 381 269 q 410 224 410 167 q 410 87 358 37 q 305 -13 222 -13 q 134 -13 81 37 q 28 87 28 167 q 28 217 52 260 q 77 303 131 347 z"},"e":{"x_min":0,"x_max":444,"ha":444,"o":"m 400 46 q 363 14 324 0 q 286 -14 235 -14 q 141 -14 91 51 q 42 116 42 241 q 42 363 90 431 q 137 500 222 500 q 308 500 355 432 q 402 364 402 239 l 402 220 l 116 220 l 116 208 q 116 131 149 87 q 182 43 239 43 q 274 43 304 58 q 334 74 351 100 l 400 100 z m 329 275 q 325 356 297 401 q 270 445 222 445 q 172 445 145 402 q 118 358 116 275 z"},"b":{"x_min":0,"x_max":444,"ha":444,"o":"m 127 387 l 127 98 q 151 70 173 58 q 194 45 218 45 q 269 45 295 95 q 321 145 321 243 q 321 340 295 389 q 269 439 218 439 q 194 439 172 427 q 150 414 127 387 z m 58 681 l 127 681 l 127 443 l 137 440 q 159 470 185 485 q 210 499 243 499 q 311 499 352 430 q 393 360 393 244 q 393 125 352 55 q 312 -14 243 -14 q 210 -14 184 0 q 159 14 137 44 l 127 42 l 127 0 l 58 0 z"},"m":{"x_min":0,"x_max":667,"ha":667,"o":"m 67 486 l 136 486 l 136 446 l 145 443 q 165 472 189 485 q 214 498 248 498 q 286 498 312 482 q 339 466 362 429 q 398 466 427 482 q 457 499 486 499 q 547 499 579 455 q 612 412 612 330 l 612 287 l 612 0 l 543 0 l 543 304 q 543 382 524 412 q 505 442 461 442 q 432 442 411 430 q 391 418 374 392 l 374 0 l 305 0 l 305 304 q 305 381 288 412 q 271 442 230 442 q 203 442 181 429 q 159 417 136 389 l 136 0 l 67 0 z"},"#":{"x_min":0,"x_max":769,"ha":769,"o":"m 476 422 l 346 422 l 299 287 l 429 287 z m 448 710 l 366 474 l 495 474 l 579 710 l 641 710 l 558 474 l 712 474 l 694 422 l 539 422 l 491 287 l 657 287 l 639 234 l 473 234 l 390 0 l 327 0 l 411 234 l 280 234 l 196 0 l 134 0 l 217 234 l 57 234 l 76 287 l 235 287 l 284 422 l 112 422 l 129 474 l 302 474 l 386 710 z"},",":{"x_min":0,"x_max":222,"ha":222,"o":"m 45 -110 q 77 -107 91 -91 q 104 -75 104 -37 l 104 13 l 58 13 l 58 101 l 165 101 l 165 -9 q 165 -91 139 -122 q 113 -153 45 -156 z"},"n":{"x_min":0,"x_max":444,"ha":444,"o":"m 69 486 l 139 486 l 139 446 l 149 443 q 169 471 195 485 q 220 498 255 498 q 321 498 354 456 q 387 414 387 328 l 387 287 l 387 0 l 317 0 l 317 304 q 317 383 299 413 q 281 442 237 442 q 210 442 186 429 q 163 417 139 389 l 139 0 l 69 0 z"},"h":{"x_min":0,"x_max":444,"ha":444,"o":"m 69 681 l 138 681 l 138 445 l 149 443 q 169 471 195 485 q 220 498 255 498 q 320 498 354 457 q 387 415 387 334 l 387 287 l 387 0 l 318 0 l 318 304 q 318 382 300 412 q 281 442 237 442 q 210 442 186 429 q 163 417 138 389 l 138 0 l 69 0 z"},"z":{"x_min":0,"x_max":347,"ha":347,"o":"m 33 58 l 249 428 l 34 428 l 34 486 l 319 486 l 319 421 l 103 58 l 331 58 l 331 0 l 33 0 z"},"B":{"x_min":0,"x_max":500,"ha":500,"o":"m 143 596 l 143 370 q 145 370 149 370 q 180 368 195 368 q 278 368 317 396 q 356 423 356 483 q 356 542 317 570 q 277 599 198 599 q 186 599 172 598 q 158 598 143 596 z m 143 312 l 143 60 q 155 59 168 59 q 181 58 205 58 q 299 58 342 87 q 384 116 384 179 q 384 247 337 280 q 290 314 196 314 q 181 314 146 312 z m 69 653 l 204 653 q 320 653 376 614 q 433 575 433 495 q 433 442 404 405 q 374 367 322 354 l 322 346 q 389 327 423 284 q 458 242 458 180 q 458 89 397 45 q 337 0 214 0 l 69 0 z"},"K":{"x_min":0,"x_max":486,"ha":486,"o":"m 69 653 l 139 653 l 139 394 q 139 367 137 345 q 134 324 129 303 l 139 298 l 388 653 l 466 653 l 330 457 q 324 448 308 429 q 291 409 264 379 l 467 0 l 384 0 l 266 226 q 265 229 262 234 q 237 283 230 323 l 210 326 l 139 230 l 139 0 l 69 0 z"},"R":{"x_min":0,"x_max":500,"ha":500,"o":"m 143 325 q 149 325 157 324 q 166 324 181 324 q 275 324 318 358 q 362 393 362 467 q 362 536 321 567 q 279 599 190 599 q 177 599 146 597 l 143 597 z m 69 653 l 226 653 q 330 653 387 606 q 445 559 445 473 q 445 411 409 365 q 374 320 306 296 l 499 0 l 410 0 l 243 266 l 143 266 l 143 0 l 69 0 z"},"T":{"x_min":0,"x_max":444,"ha":444,"o":"m 261 0 l 187 0 l 187 595 l 13 595 l 13 653 l 431 653 l 431 595 l 261 595 z"},"P":{"x_min":0,"x_max":486,"ha":486,"o":"m 143 294 l 146 294 q 175 292 188 292 q 288 292 334 330 q 380 368 380 450 q 380 524 334 561 q 288 597 193 597 q 179 597 148 595 q 145 595 143 595 z m 69 653 l 211 653 q 336 653 397 601 q 458 549 458 441 q 458 335 394 285 q 330 235 195 235 q 187 235 176 235 q 165 236 143 237 l 143 0 l 69 0 z"},"|":{"x_min":0,"x_max":500,"ha":500,"o":"m 277 764 l 277 -236 l 224 -236 l 224 764 z"},"t":{"x_min":0,"x_max":278,"ha":278,"o":"m 259 0 l 183 0 q 125 0 102 25 q 80 50 80 129 l 80 431 l 21 431 l 21 486 l 80 486 l 80 639 l 149 639 l 149 486 l 259 486 l 259 431 l 149 431 l 149 129 q 149 78 158 68 q 168 58 212 58 l 259 58 z"},"M":{"x_min":0,"x_max":681,"ha":681,"o":"m 61 653 l 185 653 l 288 290 q 300 248 311 199 q 321 151 331 97 l 349 97 q 360 157 372 206 q 383 255 394 294 l 496 653 l 617 653 l 617 0 l 546 0 l 546 391 q 546 402 549 445 q 552 487 560 602 l 544 602 l 370 0 l 310 0 l 134 602 l 119 602 q 125 558 129 512 q 132 467 132 408 l 132 388 l 132 0 l 61 0 z"},"g":{"x_min":0,"x_max":444,"ha":444,"o":"m 307 98 q 286 68 260 54 q 234 40 202 40 q 127 40 86 100 q 44 159 44 267 q 44 378 85 438 q 126 499 202 499 q 234 499 260 485 q 285 470 307 440 l 318 443 l 318 486 l 386 486 l 386 15 q 386 -69 345 -111 q 304 -153 222 -153 q 181 -153 143 -141 q 104 -129 67 -105 l 67 -27 l 116 -27 q 134 -60 158 -74 q 182 -89 219 -89 q 274 -89 296 -56 q 318 -22 318 65 l 318 96 z m 318 387 q 294 415 271 427 q 249 440 222 440 q 169 440 143 398 q 117 357 117 273 q 117 183 143 141 q 168 99 222 99 q 249 99 272 112 q 295 124 318 151 z"},"j":{"x_min":0,"x_max":208,"ha":208,"o":"m 66 681 l 141 681 l 141 604 l 66 604 z m 138 486 l 138 -60 q 138 -109 110 -132 q 81 -154 17 -154 q 4 -154 -2 -154 q -9 -153 -15 -153 l -15 -95 q -10 -95 -2 -96 q 7 -96 10 -96 q 46 -96 57 -86 q 69 -76 69 -45 l 69 -24 l 69 486 z"},"i":{"x_min":0,"x_max":208,"ha":208,"o":"m 66 681 l 142 681 l 142 604 l 66 604 z m 69 486 l 138 486 l 138 0 l 69 0 z"},"y":{"x_min":0,"x_max":389,"ha":389,"o":"m 21 -91 q 24 -91 31 -91 q 38 -92 41 -92 q 91 -92 117 -67 q 143 -42 160 26 l 24 486 l 100 486 l 192 89 l 202 89 l 290 486 l 368 486 l 227 18 q 197 -81 157 -117 q 117 -154 43 -154 q 40 -154 32 -153 q 25 -153 21 -153 z"},"@":{"x_min":0,"x_max":1000,"ha":1000,"o":"m 634 408 l 663 469 l 709 469 l 641 195 q 636 173 635 164 q 633 155 633 150 q 633 129 647 117 q 661 105 685 105 q 710 105 737 115 q 764 125 788 145 q 835 183 862 245 q 888 307 888 383 q 888 507 792 586 q 695 666 543 666 q 458 666 387 642 q 316 618 259 569 q 187 507 150 427 q 114 347 114 250 q 114 165 143 101 q 172 37 233 -12 q 283 -52 352 -75 q 421 -97 499 -97 q 583 -97 662 -73 q 742 -49 809 -3 l 828 -30 q 756 -84 676 -111 q 596 -138 509 -138 q 416 -138 339 -115 q 263 -93 205 -48 q 129 10 93 86 q 57 162 57 262 q 57 362 99 448 q 141 535 222 602 q 287 655 368 683 q 449 710 544 710 q 623 710 694 688 q 766 667 816 628 q 879 580 911 517 q 943 454 943 380 q 943 296 913 229 q 882 161 824 115 q 790 89 751 75 q 713 61 673 61 q 625 61 602 79 q 579 98 579 135 q 579 137 580 142 q 580 146 580 149 q 555 106 518 84 q 481 61 436 61 q 361 61 322 102 q 283 143 283 221 q 283 333 349 411 q 415 488 510 488 q 556 488 587 468 q 618 448 634 408 z m 591 229 l 621 350 q 612 396 584 421 q 556 447 516 447 q 441 447 392 382 q 343 316 343 217 q 343 163 370 132 q 396 102 444 102 q 496 102 536 137 q 577 172 591 229 z"},".":{"x_min":0,"x_max":222,"ha":222,"o":"m 58 0 l 58 99 l 164 99 l 164 0 z"},"p":{"x_min":0,"x_max":444,"ha":444,"o":"m 127 98 q 151 70 173 58 q 194 45 218 45 q 269 45 295 94 q 321 144 321 241 q 321 339 295 389 q 269 439 218 439 q 194 439 172 427 q 150 414 127 387 z m 58 486 l 127 486 l 127 443 l 137 440 q 159 470 185 485 q 210 499 243 499 q 312 499 352 429 q 393 360 393 241 q 393 125 352 55 q 311 -14 243 -14 q 210 -14 184 0 q 159 14 137 44 l 127 42 l 127 -153 l 58 -153 z"},"X":{"x_min":0,"x_max":486,"ha":486,"o":"m 190 331 l 27 653 l 113 653 l 190 495 q 206 463 217 429 q 229 396 238 361 l 255 361 q 267 402 278 435 q 290 467 300 491 l 372 653 l 452 653 l 291 331 l 456 0 l 375 0 l 286 181 q 266 221 257 247 q 248 272 242 300 l 225 300 q 218 268 208 237 q 198 205 183 171 l 109 0 l 25 0 z"},"*":{"x_min":0,"x_max":500,"ha":500,"o":"m 149 264 l 101 300 l 215 435 l 215 443 l 56 484 l 75 539 l 224 486 l 231 489 l 220 667 l 280 667 l 271 489 l 278 484 l 425 543 l 444 484 l 289 441 l 288 434 l 406 300 l 360 266 l 257 413 l 248 413 z"},"Y":{"x_min":0,"x_max":458,"ha":458,"o":"m 196 233 l 6 653 l 92 653 l 187 420 q 188 416 192 407 q 221 338 232 288 l 247 288 q 255 329 264 362 q 272 396 280 416 l 369 653 l 452 653 l 271 233 l 271 0 l 196 0 z"},"c":{"x_min":0,"x_max":389,"ha":389,"o":"m 349 370 l 302 370 q 288 407 266 426 q 245 445 217 445 q 170 445 143 391 q 116 337 116 242 q 116 147 143 94 q 170 41 217 41 q 247 41 267 59 q 287 78 300 116 l 349 116 l 349 47 q 320 16 288 1 q 256 -14 218 -14 q 136 -14 90 54 q 43 122 43 241 q 43 363 90 431 q 136 500 218 500 q 252 500 285 485 q 317 470 349 440 z"},"!":{"x_min":0,"x_max":222,"ha":222,"o":"m 66 653 l 156 653 l 139 177 l 83 177 z m 58 0 l 58 99 l 164 99 l 164 0 z"},"/":{"x_min":0,"x_max":431,"ha":431,"o":"m 342 680 l 405 680 l 89 -30 l 25 -30 z"},"6":{"x_min":0,"x_max":444,"ha":444,"o":"m 216 376 q 164 376 135 337 q 106 297 106 226 q 106 143 137 95 q 167 47 221 47 q 272 47 303 90 q 335 134 335 206 q 335 292 306 334 q 276 376 216 376 z m 356 667 l 356 645 q 274 591 216 527 q 158 463 129 393 l 142 389 q 169 411 195 422 q 220 432 248 432 q 319 432 361 374 q 404 315 404 216 q 404 111 354 49 q 304 -14 222 -14 q 140 -14 88 55 q 36 125 36 236 q 36 355 95 468 q 154 580 263 667 z"},"r":{"x_min":0,"x_max":333,"ha":333,"o":"m 69 486 l 138 486 l 138 448 q 138 430 136 418 q 134 407 130 396 l 142 389 q 164 435 206 461 q 248 487 299 487 l 304 487 l 304 409 q 253 408 214 392 q 175 376 138 340 l 138 0 l 69 0 z"},"2":{"x_min":0,"x_max":444,"ha":444,"o":"m 119 475 l 44 475 l 44 485 q 44 582 89 632 q 134 682 220 682 q 300 682 347 633 q 395 584 395 502 q 395 439 369 383 q 343 326 283 262 q 273 252 253 231 q 158 134 124 55 l 137 41 q 161 54 186 60 q 210 66 250 66 l 406 66 l 406 0 l 51 0 l 51 2 q 51 94 187 253 l 190 257 l 195 264 q 320 410 320 506 q 320 564 293 595 q 266 626 215 626 q 166 626 143 593 q 119 561 119 492 z"},"{":{"x_min":0,"x_max":500,"ha":500,"o":"m 417 669 l 399 669 q 335 669 312 645 q 290 621 290 545 l 290 427 q 290 345 269 310 q 248 274 194 259 q 248 244 269 208 q 290 173 290 91 l 290 -27 q 290 -103 312 -127 q 334 -151 395 -151 q 398 -151 406 -150 q 413 -150 417 -150 l 417 -202 l 394 -202 q 298 -202 264 -167 q 230 -131 230 -22 l 230 97 q 230 172 202 203 q 174 234 107 234 q 104 234 96 233 q 89 233 85 233 l 85 286 q 89 286 96 286 q 104 285 107 285 q 174 285 202 316 q 230 347 230 422 l 230 540 q 230 649 264 685 q 298 721 394 721 l 417 721 z"},"9":{"x_min":0,"x_max":444,"ha":444,"o":"m 228 291 q 281 291 310 330 q 339 369 339 440 q 339 523 308 572 q 276 620 223 620 q 172 620 140 576 q 109 533 109 460 q 109 374 138 333 q 167 291 228 291 z m 88 0 l 88 22 q 171 77 229 141 q 287 205 315 274 l 303 278 q 276 255 250 245 q 224 234 196 234 q 125 234 83 293 q 40 352 40 450 q 40 555 90 617 q 140 680 222 680 q 305 680 356 611 q 408 542 408 430 q 408 311 349 199 q 291 87 181 0 z"}," ":{"x_min":0,"x_max":222,"ha":222,"o":""},"I":{"x_min":0,"x_max":333,"ha":333,"o":"m 204 49 l 306 49 l 306 0 l 28 0 l 28 49 l 130 49 l 130 604 l 28 604 l 28 653 l 306 653 l 306 604 l 204 604 z"},"H":{"x_min":0,"x_max":556,"ha":556,"o":"m 69 653 l 143 653 l 143 377 l 412 377 l 412 653 l 486 653 l 486 0 l 412 0 l 412 315 l 143 315 l 143 0 l 69 0 z"},"4":{"x_min":0,"x_max":444,"ha":444,"o":"m 284 236 l 297 250 q 291 284 287 313 q 284 343 284 369 l 284 479 q 284 507 287 542 q 291 576 297 619 l 277 619 q 251 538 201 442 q 150 346 82 251 l 91 235 q 112 242 137 246 q 163 249 203 249 q 233 249 250 246 q 267 243 284 236 z m 353 250 l 413 250 l 413 192 l 353 192 l 353 0 l 284 0 l 284 192 l 23 192 l 23 251 l 251 667 l 353 667 z"},"~":{"x_min":0,"x_max":833,"ha":833,"o":"m 747 311 q 697 276 650 259 q 604 241 558 241 q 510 241 431 269 q 421 272 417 274 l 409 277 q 323 308 276 308 q 235 308 190 290 q 146 271 87 230 l 87 285 q 139 321 186 338 q 232 356 276 356 q 327 356 409 326 q 414 324 417 323 q 422 321 433 317 q 514 288 558 288 q 600 288 645 307 q 689 325 747 366 z"},"D":{"x_min":0,"x_max":542,"ha":542,"o":"m 143 56 q 145 56 148 56 q 174 54 187 54 q 312 54 368 119 q 423 184 423 332 q 423 473 367 536 q 311 598 185 598 q 168 598 160 598 q 151 598 143 597 z m 69 653 l 216 653 q 359 653 431 572 q 502 490 502 327 q 502 162 431 81 q 360 0 216 0 l 69 0 z"},"^":{"x_min":0,"x_max":1000,"ha":1000,"o":"m 534 712 l 793 440 l 723 440 l 500 662 l 276 440 l 206 440 l 466 712 z"},"0":{"x_min":0,"x_max":444,"ha":444,"o":"m 222 625 q 163 625 140 567 q 116 508 116 354 q 116 157 139 99 q 161 41 221 41 q 282 41 305 95 q 328 150 328 332 q 328 504 304 565 q 281 625 222 625 z m 403 319 q 403 138 362 62 q 320 -14 225 -14 q 126 -14 83 62 q 41 139 41 323 q 41 527 82 604 q 124 681 225 681 q 323 681 363 603 q 403 524 403 319 z"},"F":{"x_min":0,"x_max":431,"ha":431,"o":"m 69 0 l 69 653 l 404 653 l 404 597 l 143 597 l 143 376 l 391 376 l 391 317 l 143 317 l 143 0 z"},"`":{"x_min":0,"x_max":500,"ha":500,"o":"m 121 684 l 217 684 q 235 650 261 620 q 286 589 319 562 l 319 545 l 268 545 q 237 578 200 607 q 163 635 121 657 z"},"k":{"x_min":0,"x_max":403,"ha":403,"o":"m 69 681 l 137 681 l 137 381 q 137 355 135 322 q 134 290 130 240 l 144 236 l 317 486 l 397 486 l 227 270 l 385 0 l 309 0 l 221 151 q 209 171 202 191 q 195 211 191 233 l 183 236 l 137 165 l 137 0 l 69 0 z"},"u":{"x_min":0,"x_max":444,"ha":444,"o":"m 377 0 l 308 0 l 308 40 l 297 43 q 277 15 251 1 q 226 -12 191 -12 q 146 -12 115 10 q 83 31 68 73 q 62 87 60 111 q 58 134 58 200 l 58 486 l 127 486 l 127 182 q 127 104 146 74 q 165 44 209 44 q 236 44 260 57 q 283 69 308 97 l 308 486 l 377 486 z"},"U":{"x_min":0,"x_max":542,"ha":542,"o":"m 144 653 l 144 232 q 144 127 173 88 q 202 48 273 48 q 341 48 372 84 q 402 120 402 202 l 402 262 l 402 653 l 472 653 l 472 265 q 472 198 469 159 q 465 121 457 98 q 438 43 390 14 q 342 -14 268 -14 q 199 -14 154 13 q 109 41 86 97 q 77 120 73 153 q 69 187 69 273 l 69 653 z"},"o":{"x_min":0,"x_max":444,"ha":444,"o":"m 222 445 q 173 445 144 393 q 115 342 115 252 q 115 149 143 95 q 170 41 222 41 q 273 41 301 94 q 329 147 329 243 q 329 338 301 391 q 272 445 222 445 z m 42 246 q 42 364 90 432 q 139 500 222 500 q 307 500 354 432 q 402 365 402 243 q 402 119 355 52 q 309 -14 222 -14 q 137 -14 89 54 q 42 123 42 246 z"},"N":{"x_min":0,"x_max":556,"ha":556,"o":"m 69 653 l 163 653 l 356 275 q 375 237 388 197 q 401 157 410 113 l 429 113 q 423 172 419 218 q 416 264 416 292 l 416 653 l 486 653 l 486 0 l 419 0 l 190 458 q 176 485 165 520 q 154 556 145 599 l 128 599 q 133 553 135 511 q 138 470 138 436 l 138 0 l 69 0 z"},"+":{"x_min":0,"x_max":833,"ha":833,"o":"m 441 596 l 441 322 l 709 322 l 709 274 l 441 274 l 441 0 l 393 0 l 393 274 l 124 274 l 124 322 l 393 322 l 393 596 z"},"G":{"x_min":0,"x_max":542,"ha":542,"o":"m 405 54 l 395 54 q 358 20 323 3 q 287 -14 253 -14 q 152 -14 96 75 q 41 164 41 327 q 41 497 104 582 q 167 667 291 667 q 336 667 380 653 q 424 639 472 609 l 472 517 l 422 517 q 400 566 367 589 q 334 612 287 612 q 202 612 160 542 q 119 471 119 326 q 119 187 157 117 q 194 47 269 47 q 307 47 339 63 q 370 80 397 113 l 397 199 q 397 219 400 236 q 403 253 410 271 l 240 271 l 240 329 l 472 329 l 472 0 l 405 0 z"},"q":{"x_min":0,"x_max":444,"ha":444,"o":"m 318 99 l 318 388 q 294 416 272 428 q 250 441 227 441 q 176 441 149 391 q 123 341 123 243 q 123 146 149 97 q 176 47 227 47 q 251 47 273 59 q 295 72 318 99 z m 387 -153 l 318 -153 l 318 44 l 307 46 q 285 16 260 2 q 235 -12 202 -12 q 134 -12 92 57 q 51 126 51 242 q 51 361 92 430 q 133 500 202 500 q 235 500 260 486 q 285 472 307 442 l 318 444 l 318 486 l 387 486 z"},"d":{"x_min":0,"x_max":444,"ha":444,"o":"m 318 387 q 295 414 273 427 q 251 439 227 439 q 176 439 149 389 q 123 339 123 243 q 123 146 149 95 q 176 45 227 45 q 250 45 272 58 q 294 70 318 98 z m 318 0 l 318 42 l 307 44 q 285 14 260 0 q 235 -14 202 -14 q 133 -14 92 56 q 51 125 51 244 q 51 360 93 429 q 134 499 202 499 q 234 499 260 485 q 285 471 307 440 l 318 443 l 318 681 l 387 681 l 387 0 z"},"1":{"x_min":0,"x_max":444,"ha":444,"o":"m 51 58 l 190 58 l 190 609 l 51 609 l 51 667 l 262 667 l 262 58 l 410 58 l 410 0 l 51 0 z"},"5":{"x_min":0,"x_max":444,"ha":444,"o":"m 43 116 l 89 116 q 97 83 124 64 q 150 45 189 45 q 246 45 280 89 q 313 132 313 208 q 313 283 282 322 q 251 362 193 362 q 172 362 154 355 q 135 348 117 334 l 68 338 l 68 667 l 378 667 l 378 603 l 252 603 q 222 603 194 607 q 167 610 139 618 l 125 606 q 131 584 134 556 q 137 527 137 482 q 137 462 134 447 q 131 432 125 416 l 141 403 q 164 411 184 414 q 205 418 224 418 q 299 418 347 361 q 396 304 396 214 q 396 111 340 49 q 285 -13 192 -13 q 154 -13 117 0 q 81 12 43 38 z"}}}
